<mxfile host="app.diagrams.net" modified="2022-06-07T08:21:26.295Z" agent="5.0 (Windows NT 6.1; Win64; x64) AppleWebKit/537.36 (KHTML, like Gecko) Chrome/102.0.5005.63 Safari/537.36" etag="OAooqbeVgH2mB3VFo1eB" version="19.0.0" type="github" pages="2">
  <diagram id="8Mcmq0ioaoLnQd22ZTMx" name="第 1 页">
    <mxGraphModel dx="1240" dy="669" grid="1" gridSize="10" guides="1" tooltips="1" connect="1" arrows="1" fold="1" page="1" pageScale="1" pageWidth="300" pageHeight="900" math="0" shadow="0">
      <root>
        <mxCell id="0" />
        <mxCell id="1" parent="0" />
        <mxCell id="ox4tvJcsVtgA0NAjYwBi-67" value="" style="rounded=1;whiteSpace=wrap;html=1;shadow=1;fontSize=11;strokeWidth=1;fillColor=#d5e8d4;dashed=1;arcSize=5;strokeColor=#82b366;" parent="1" vertex="1">
          <mxGeometry x="11" y="294.5" width="330" height="170" as="geometry" />
        </mxCell>
        <mxCell id="ox4tvJcsVtgA0NAjYwBi-68" value="" style="text;html=1;fillColor=none;align=center;verticalAlign=middle;whiteSpace=wrap;fontSize=54;fontStyle=1;shadow=0;rounded=1;glass=0;sketch=0;arcSize=1;dashed=1;strokeWidth=1;container=0;strokeColor=default;" parent="1" vertex="1">
          <mxGeometry x="81" y="314.5" width="240" height="130" as="geometry" />
        </mxCell>
        <mxCell id="ox4tvJcsVtgA0NAjYwBi-42" value="" style="rounded=1;whiteSpace=wrap;html=1;shadow=1;fontSize=11;strokeWidth=1;fillColor=#d5e8d4;dashed=1;arcSize=5;strokeColor=#82b366;" parent="1" vertex="1">
          <mxGeometry x="11" y="40" width="330" height="170" as="geometry" />
        </mxCell>
        <mxCell id="ox4tvJcsVtgA0NAjYwBi-55" value="" style="text;html=1;fillColor=none;align=center;verticalAlign=middle;whiteSpace=wrap;fontSize=54;fontStyle=1;shadow=0;rounded=1;glass=0;sketch=0;arcSize=1;dashed=1;strokeWidth=1;container=0;strokeColor=default;" parent="1" vertex="1">
          <mxGeometry x="81" y="60" width="240" height="130" as="geometry" />
        </mxCell>
        <mxCell id="Qy1Y6E39n3u61H79zV9y-25" value="" style="rounded=1;whiteSpace=wrap;html=1;shadow=1;fontSize=11;strokeWidth=1;fillColor=#d5e8d4;dashed=1;arcSize=5;strokeColor=#82b366;" parent="1" vertex="1">
          <mxGeometry x="431" y="40" width="429" height="170" as="geometry" />
        </mxCell>
        <mxCell id="98vJzE4Z4TFfjShBDfRC-30" value="" style="text;html=1;fillColor=none;align=center;verticalAlign=middle;whiteSpace=wrap;fontSize=54;fontStyle=1;shadow=0;rounded=1;glass=0;sketch=0;arcSize=1;dashed=1;strokeWidth=1;container=0;strokeColor=default;" parent="1" vertex="1">
          <mxGeometry x="493" y="60" width="350" height="130" as="geometry" />
        </mxCell>
        <mxCell id="ox4tvJcsVtgA0NAjYwBi-10" value="&lt;span style=&quot;color: rgb(51, 51, 51);&quot;&gt;&lt;font style=&quot;font-size: 12px;&quot;&gt;实时监控&lt;/font&gt;&lt;/span&gt;" style="ellipse;whiteSpace=wrap;html=1;shadow=1;fontSize=10;fillColor=#ffe6cc;strokeColor=#d79b00;" parent="1" vertex="1">
          <mxGeometry x="503" y="69.75" width="100" height="40" as="geometry" />
        </mxCell>
        <mxCell id="ox4tvJcsVtgA0NAjYwBi-11" value="&lt;span style=&quot;color: rgb(51, 51, 51);&quot;&gt;&lt;font style=&quot;font-size: 12px;&quot;&gt;持续验证&lt;/font&gt;&lt;/span&gt;" style="ellipse;whiteSpace=wrap;html=1;shadow=1;fontSize=10;fillColor=#ffe6cc;strokeColor=#d79b00;" parent="1" vertex="1">
          <mxGeometry x="618" y="69.75" width="100" height="40" as="geometry" />
        </mxCell>
        <mxCell id="ox4tvJcsVtgA0NAjYwBi-12" value="&lt;span style=&quot;color: rgb(51, 51, 51);&quot;&gt;&lt;font style=&quot;font-size: 12px;&quot;&gt;身份审计&lt;/font&gt;&lt;/span&gt;" style="ellipse;whiteSpace=wrap;html=1;shadow=1;fontSize=10;fillColor=#ffe6cc;strokeColor=#d79b00;" parent="1" vertex="1">
          <mxGeometry x="733" y="69.75" width="100" height="40" as="geometry" />
        </mxCell>
        <mxCell id="ox4tvJcsVtgA0NAjYwBi-13" value="&lt;span style=&quot;color: rgb(51, 51, 51);&quot;&gt;&lt;font style=&quot;font-size: 12px;&quot;&gt;账号审计&lt;/font&gt;&lt;/span&gt;" style="ellipse;whiteSpace=wrap;html=1;shadow=1;fontSize=10;fillColor=#ffe6cc;strokeColor=#d79b00;" parent="1" vertex="1">
          <mxGeometry x="733" y="130" width="100" height="40" as="geometry" />
        </mxCell>
        <mxCell id="ox4tvJcsVtgA0NAjYwBi-14" value="&lt;span style=&quot;color: rgb(51, 51, 51);&quot;&gt;&lt;font style=&quot;font-size: 12px;&quot;&gt;访问行为分析&lt;/font&gt;&lt;/span&gt;" style="ellipse;whiteSpace=wrap;html=1;shadow=1;fontSize=10;fillColor=#ffe6cc;strokeColor=#d79b00;" parent="1" vertex="1">
          <mxGeometry x="503" y="130" width="100" height="40" as="geometry" />
        </mxCell>
        <mxCell id="ox4tvJcsVtgA0NAjYwBi-15" value="&lt;span style=&quot;color: rgb(51, 51, 51);&quot;&gt;&lt;font style=&quot;font-size: 12px;&quot;&gt;动态风险预警&lt;/font&gt;&lt;/span&gt;" style="ellipse;whiteSpace=wrap;html=1;shadow=1;fontSize=10;fillColor=#ffe6cc;strokeColor=#d79b00;" parent="1" vertex="1">
          <mxGeometry x="618" y="130" width="100" height="40" as="geometry" />
        </mxCell>
        <mxCell id="ox4tvJcsVtgA0NAjYwBi-28" value="" style="rounded=1;whiteSpace=wrap;html=1;shadow=1;fontSize=11;strokeWidth=1;fillColor=#d5e8d4;dashed=1;arcSize=5;strokeColor=#82b366;" parent="1" vertex="1">
          <mxGeometry x="431" y="294.5" width="429" height="170" as="geometry" />
        </mxCell>
        <mxCell id="ox4tvJcsVtgA0NAjYwBi-29" value="" style="text;html=1;fillColor=none;align=center;verticalAlign=middle;whiteSpace=wrap;fontSize=54;fontStyle=1;shadow=0;rounded=1;glass=0;sketch=0;arcSize=1;dashed=1;strokeWidth=1;container=0;strokeColor=default;" parent="1" vertex="1">
          <mxGeometry x="490" y="314.5" width="353" height="130" as="geometry" />
        </mxCell>
        <mxCell id="ox4tvJcsVtgA0NAjYwBi-33" value="&lt;font style=&quot;font-size: 12px;&quot; color=&quot;#333333&quot;&gt;......&lt;/font&gt;" style="rounded=0;whiteSpace=wrap;html=1;shadow=1;fontSize=11;strokeColor=#23445d;strokeWidth=1;fillColor=#bac8d3;" parent="1" vertex="1">
          <mxGeometry x="211" y="384.5" width="90" height="40" as="geometry" />
        </mxCell>
        <mxCell id="ox4tvJcsVtgA0NAjYwBi-34" value="&lt;font style=&quot;font-size: 12px;&quot; color=&quot;#333333&quot;&gt;时间&lt;/font&gt;" style="ellipse;whiteSpace=wrap;html=1;shadow=1;fontSize=10;fillColor=#ffe6cc;strokeColor=#d79b00;" parent="1" vertex="1">
          <mxGeometry x="502" y="324.25" width="100" height="40" as="geometry" />
        </mxCell>
        <mxCell id="ox4tvJcsVtgA0NAjYwBi-35" value="&lt;span style=&quot;color: rgb(51, 51, 51);&quot;&gt;&lt;font style=&quot;font-size: 12px;&quot;&gt;日志级别&lt;/font&gt;&lt;/span&gt;" style="ellipse;whiteSpace=wrap;html=1;shadow=1;fontSize=10;fillColor=#ffe6cc;strokeColor=#d79b00;" parent="1" vertex="1">
          <mxGeometry x="617" y="324.25" width="100" height="40" as="geometry" />
        </mxCell>
        <mxCell id="ox4tvJcsVtgA0NAjYwBi-36" value="&lt;span style=&quot;color: rgb(51, 51, 51);&quot;&gt;&lt;font style=&quot;font-size: 12px;&quot;&gt;日志类型&lt;/font&gt;&lt;/span&gt;" style="ellipse;whiteSpace=wrap;html=1;shadow=1;fontSize=10;fillColor=#ffe6cc;strokeColor=#d79b00;" parent="1" vertex="1">
          <mxGeometry x="730" y="324.25" width="100" height="40" as="geometry" />
        </mxCell>
        <mxCell id="ox4tvJcsVtgA0NAjYwBi-37" value="&lt;span style=&quot;color: rgb(51, 51, 51);&quot;&gt;&lt;font style=&quot;font-size: 12px;&quot;&gt;日志内容&lt;/font&gt;&lt;/span&gt;" style="ellipse;whiteSpace=wrap;html=1;shadow=1;fontSize=10;fillColor=#ffe6cc;strokeColor=#d79b00;" parent="1" vertex="1">
          <mxGeometry x="733" y="384.5" width="100" height="40" as="geometry" />
        </mxCell>
        <mxCell id="ox4tvJcsVtgA0NAjYwBi-38" value="&lt;span style=&quot;color: rgb(51, 51, 51);&quot;&gt;&lt;font style=&quot;font-size: 12px;&quot;&gt;访问IP&lt;/font&gt;&lt;/span&gt;" style="ellipse;whiteSpace=wrap;html=1;shadow=1;fontSize=10;fillColor=#ffe6cc;strokeColor=#d79b00;" parent="1" vertex="1">
          <mxGeometry x="502" y="384.5" width="100" height="40" as="geometry" />
        </mxCell>
        <mxCell id="ox4tvJcsVtgA0NAjYwBi-39" value="&lt;font style=&quot;font-size: 12px;&quot; color=&quot;#333333&quot;&gt;用户名&lt;/font&gt;" style="ellipse;whiteSpace=wrap;html=1;shadow=1;fontSize=10;fillColor=#ffe6cc;strokeColor=#d79b00;" parent="1" vertex="1">
          <mxGeometry x="617" y="384.5" width="100" height="40" as="geometry" />
        </mxCell>
        <mxCell id="ox4tvJcsVtgA0NAjYwBi-41" value="&lt;b&gt;策&lt;br&gt;略&lt;/b&gt;" style="html=1;shadow=0;dashed=0;align=center;verticalAlign=middle;shape=mxgraph.arrows2.arrow;dy=0;dx=19;notch=0;fontSize=10;fillColor=#ffcd28;strokeColor=#d79b00;gradientColor=#ffa500;" parent="1" vertex="1">
          <mxGeometry x="440" y="60" width="40" height="130" as="geometry" />
        </mxCell>
        <mxCell id="ox4tvJcsVtgA0NAjYwBi-44" value="&lt;span style=&quot;color: rgb(51, 51, 51);&quot;&gt;&lt;font style=&quot;font-size: 12px;&quot;&gt;审计日志&lt;/font&gt;&lt;/span&gt;" style="rounded=0;whiteSpace=wrap;html=1;shadow=1;fontSize=11;strokeColor=#23445d;strokeWidth=1;fillColor=#bac8d3;" parent="1" vertex="1">
          <mxGeometry x="95" y="70" width="90" height="35" as="geometry" />
        </mxCell>
        <mxCell id="ox4tvJcsVtgA0NAjYwBi-45" value="&lt;span style=&quot;color: rgb(51, 51, 51);&quot;&gt;&lt;font style=&quot;font-size: 12px;&quot;&gt;审计报表&lt;/font&gt;&lt;/span&gt;" style="rounded=0;whiteSpace=wrap;html=1;shadow=1;fontSize=11;strokeColor=#23445d;strokeWidth=1;fillColor=#bac8d3;" parent="1" vertex="1">
          <mxGeometry x="211" y="70" width="90" height="35" as="geometry" />
        </mxCell>
        <mxCell id="ox4tvJcsVtgA0NAjYwBi-47" value="&lt;font style=&quot;font-size: 12px;&quot; color=&quot;#333333&quot;&gt;智能提醒&lt;/font&gt;" style="rounded=0;whiteSpace=wrap;html=1;shadow=1;fontSize=11;strokeColor=#23445d;strokeWidth=1;fillColor=#bac8d3;" parent="1" vertex="1">
          <mxGeometry x="211" y="130" width="90" height="35" as="geometry" />
        </mxCell>
        <mxCell id="ox4tvJcsVtgA0NAjYwBi-54" value="&lt;b&gt;审&lt;br&gt;计&lt;br&gt;策&lt;br&gt;略&lt;/b&gt;" style="html=1;shadow=0;dashed=0;align=center;verticalAlign=middle;shape=mxgraph.arrows2.arrow;dy=0;dx=19;notch=0;fontSize=10;fillColor=#cdeb8b;strokeColor=#36393d;" parent="1" vertex="1">
          <mxGeometry x="27" y="60" width="40" height="130" as="geometry" />
        </mxCell>
        <mxCell id="ox4tvJcsVtgA0NAjYwBi-56" value="" style="html=1;shadow=0;dashed=0;align=center;verticalAlign=middle;shape=mxgraph.arrows2.twoWayArrow;dy=0.71;dx=20;fontSize=10;fillColor=#fff2cc;strokeColor=#d6b656;" parent="1" vertex="1">
          <mxGeometry x="344" y="107.5" width="87" height="35" as="geometry" />
        </mxCell>
        <mxCell id="ox4tvJcsVtgA0NAjYwBi-66" value="&lt;b&gt;条&lt;br&gt;件&lt;/b&gt;" style="html=1;shadow=0;dashed=0;align=center;verticalAlign=middle;shape=mxgraph.arrows2.arrow;dy=0;dx=19;notch=0;fontSize=10;fillColor=#ffcd28;strokeColor=#d79b00;gradientColor=#ffa500;" parent="1" vertex="1">
          <mxGeometry x="440" y="314.5" width="40" height="130" as="geometry" />
        </mxCell>
        <mxCell id="ox4tvJcsVtgA0NAjYwBi-69" value="&lt;span style=&quot;color: rgb(51, 51, 51);&quot;&gt;&lt;font style=&quot;font-size: 12px;&quot;&gt;实时监控系统运行&lt;/font&gt;&lt;/span&gt;" style="rounded=0;whiteSpace=wrap;html=1;shadow=1;fontSize=11;strokeColor=#23445d;strokeWidth=1;fillColor=#bac8d3;" parent="1" vertex="1">
          <mxGeometry x="95" y="324.5" width="100" height="40" as="geometry" />
        </mxCell>
        <mxCell id="ox4tvJcsVtgA0NAjYwBi-70" value="&lt;span style=&quot;color: rgb(51, 51, 51);&quot;&gt;&lt;font style=&quot;font-size: 12px;&quot;&gt;访问审计日志&lt;/font&gt;&lt;/span&gt;" style="rounded=0;whiteSpace=wrap;html=1;shadow=1;fontSize=11;strokeColor=#23445d;strokeWidth=1;fillColor=#bac8d3;" parent="1" vertex="1">
          <mxGeometry x="211" y="324.5" width="100" height="40" as="geometry" />
        </mxCell>
        <mxCell id="ox4tvJcsVtgA0NAjYwBi-71" value="&lt;span style=&quot;color: rgb(51, 51, 51);&quot;&gt;&lt;font style=&quot;font-size: 12px;&quot;&gt;动态告警异常状态&lt;/font&gt;&lt;/span&gt;" style="rounded=0;whiteSpace=wrap;html=1;shadow=1;fontSize=11;strokeColor=#23445d;strokeWidth=1;fillColor=#bac8d3;" parent="1" vertex="1">
          <mxGeometry x="95" y="384.5" width="96" height="40" as="geometry" />
        </mxCell>
        <mxCell id="ox4tvJcsVtgA0NAjYwBi-72" value="&lt;b&gt;实&lt;br&gt;时&lt;br&gt;审&lt;br&gt;计&lt;/b&gt;" style="html=1;shadow=0;dashed=0;align=center;verticalAlign=middle;shape=mxgraph.arrows2.arrow;dy=0;dx=19;notch=0;fontSize=10;fillColor=#cdeb8b;strokeColor=#36393d;" parent="1" vertex="1">
          <mxGeometry x="27" y="314.5" width="40" height="130" as="geometry" />
        </mxCell>
        <mxCell id="ox4tvJcsVtgA0NAjYwBi-73" value="" style="html=1;shadow=0;dashed=0;align=center;verticalAlign=middle;shape=mxgraph.arrows2.twoWayArrow;dy=0.71;dx=20;fontSize=10;fillColor=#fff2cc;strokeColor=#d6b656;" parent="1" vertex="1">
          <mxGeometry x="344" y="362" width="87" height="35" as="geometry" />
        </mxCell>
        <mxCell id="ox4tvJcsVtgA0NAjYwBi-75" value="" style="shape=flexArrow;endArrow=classic;html=1;rounded=0;fontSize=10;fillColor=#e3c800;strokeColor=#B09500;" parent="1" edge="1">
          <mxGeometry width="50" height="50" relative="1" as="geometry">
            <mxPoint x="176.79000000000002" y="210" as="sourcePoint" />
            <mxPoint x="177" y="290" as="targetPoint" />
          </mxGeometry>
        </mxCell>
        <mxCell id="ox4tvJcsVtgA0NAjYwBi-77" value="&lt;span style=&quot;color: rgb(51, 51, 51);&quot;&gt;&lt;font style=&quot;font-size: 12px;&quot;&gt;风险评估&lt;/font&gt;&lt;/span&gt;" style="rounded=0;whiteSpace=wrap;html=1;shadow=1;fontSize=11;strokeColor=#23445d;strokeWidth=1;fillColor=#bac8d3;" parent="1" vertex="1">
          <mxGeometry x="95" y="130" width="90" height="35" as="geometry" />
        </mxCell>
      </root>
    </mxGraphModel>
  </diagram>
  <diagram id="HrFjFPu9NfcljseWr6zG" name="第 2 页">
    <mxGraphModel dx="868" dy="525" grid="1" gridSize="10" guides="1" tooltips="1" connect="1" arrows="1" fold="1" page="1" pageScale="1" pageWidth="300" pageHeight="900" math="0" shadow="0">
      <root>
        <mxCell id="0" />
        <mxCell id="1" parent="0" />
      </root>
    </mxGraphModel>
  </diagram>
</mxfile>
